#Comment line ignore any data following # character 
#Hierarchical Translation and Rotation (.htr) file 
[Header]	
#Header keywords are followed by a single value 
FileType HTR		#Single word string
DataType HTRS		#Translation followed by rotation and scale data
FileVersion 1		#integer
NumSegments 25		#integer
NumFrames 4		#integer
DataFrameRate 30		#integer, data frame rate in this file
EulerRotationOrder ZYX
CalibrationUnits mm
RotationUnits Degrees
GlobalAxisofGravity Y
BoneLengthAxis Y
ScaleFactor 1.00
[SegmentNames&Hierarchy]
#CHILD	PARENT
BN_Tick_Root GLOBAL
BN_Torso BN_Tick_Root
BN_L_Leg_Front01 BN_Torso
BN_L_Leg_Rear01 BN_Torso
BN_MetalTop BN_Torso
BN_Neck BN_Torso
BN_R_Leg_Front01 BN_Torso
BN_R_Leg_Rear01 BN_Torso
BN_Sack BN_Torso
BN_L_Leg_Front02 BN_L_Leg_Front01
BN_L_Leg_Front03 BN_L_Leg_Front02
BN_L_Leg_Rear02 BN_L_Leg_Rear01
BN_L_Leg_Rear03 BN_L_Leg_Rear02
BN_Head BN_Neck
BN_Needle BN_Head
BN_R_Leg_Front02 BN_R_Leg_Front01
BN_R_Leg_Front03 BN_R_Leg_Front02
BN_R_Leg_Rear02 BN_R_Leg_Rear01
BN_R_Leg_Rear03 BN_R_Leg_Rear02
BN_SackDef01 BN_Sack
BN_SackDef02 BN_Sack
BN_SackDef03 BN_Sack
BN_SackDef04 BN_Sack
BN_SackDef05 BN_Sack
BN_SackDef06 BN_Sack
[BasePosition]
#SegmentName Tx, Ty, Tz, Rx, Ry, Rz, BoneLength
BN_Tick_Root 0.000000 0.000000 0.000000 -90.000000 0.000000 0.000000 10.000000 
BN_Torso 0.000000 0.000000 0.000000 0.000000 0.000000 0.000000 10.000000 
BN_L_Leg_Front01 0.000000 0.000000 0.000000 0.000000 0.000000 0.000000 10.000000 
BN_L_Leg_Rear01 0.000000 0.000000 0.000000 0.000000 0.000000 0.000000 10.000000 
BN_MetalTop 0.000000 0.000000 0.000000 0.000000 0.000000 0.000000 10.000000 
BN_Neck 0.000000 0.000000 0.000000 0.000000 0.000000 0.000000 10.000000 
BN_R_Leg_Front01 0.000000 0.000000 0.000000 0.000000 0.000000 0.000000 10.000000 
BN_R_Leg_Rear01 0.000000 0.000000 0.000000 0.000000 0.000000 0.000000 10.000000 
BN_Sack 0.000000 0.000000 0.000000 0.000000 0.000000 0.000000 10.000000 
BN_L_Leg_Front02 0.000000 0.000000 0.000000 0.000000 0.000000 0.000000 10.000000 
BN_L_Leg_Front03 0.000000 0.000000 0.000000 0.000000 0.000000 0.000000 10.000000 
BN_L_Leg_Rear02 0.000000 0.000000 0.000000 0.000000 0.000000 0.000000 10.000000 
BN_L_Leg_Rear03 0.000000 0.000000 0.000000 0.000000 0.000000 0.000000 10.000000 
BN_Head 0.000000 0.000000 0.000000 0.000000 0.000000 0.000000 10.000000 
BN_Needle 0.000000 0.000000 0.000000 0.000000 0.000000 0.000000 10.000000 
BN_R_Leg_Front02 0.000000 0.000000 0.000000 0.000000 0.000000 0.000000 10.000000 
BN_R_Leg_Front03 0.000000 0.000000 0.000000 0.000000 0.000000 0.000000 10.000000 
BN_R_Leg_Rear02 0.000000 0.000000 0.000000 0.000000 0.000000 0.000000 10.000000 
BN_R_Leg_Rear03 0.000000 0.000000 0.000000 0.000000 0.000000 0.000000 10.000000 
BN_SackDef01 0.000000 0.000000 0.000000 0.000000 0.000000 0.000000 10.000000 
BN_SackDef02 0.000000 0.000000 0.000000 0.000000 0.000000 0.000000 10.000000 
BN_SackDef03 0.000000 0.000000 0.000000 0.000000 0.000000 0.000000 10.000000 
BN_SackDef04 0.000000 0.000000 0.000000 0.000000 0.000000 0.000000 10.000000 
BN_SackDef05 0.000000 0.000000 0.000000 0.000000 0.000000 0.000000 10.000000 
BN_SackDef06 0.000000 0.000000 0.000000 0.000000 0.000000 0.000000 10.000000 
#Beginning of Data. Separated by tabs
#Fr	Tx	Ty	Tz	Rx	Ry	Rz	SF
[BN_Tick_Root]
37 0.000000 0.000000 0.000000 0.000000 0.000000 -0.000020 0.000000
38 0.000000 0.000000 0.000000 0.000000 0.000000 -0.000020 0.000000
39 0.000000 0.000000 0.000000 0.000000 0.000000 -0.000020 0.000000
40 0.000000 0.000000 0.000000 0.000000 0.000000 -0.000020 0.000000
[BN_Torso]
37 3.503682 7.789843 118.031822 -15.875312 -31.951462 -6.190804 118.340477
38 3.501117 7.858469 119.066513 -15.086436 -32.071384 -6.897494 119.376915
39 3.498551 7.927094 120.101189 -14.805117 -32.117893 -7.153461 120.413353
40 3.498551 7.927094 120.101189 -14.805120 -32.117901 -7.153462 120.413353
[BN_L_Leg_Front01]
37 -68.477791 10.734189 -26.804373 -48.608631 -11.537807 143.759018 74.316254
38 -68.477791 10.734189 -26.804373 -48.334652 -11.053461 144.461716 74.316254
39 -68.477791 10.734189 -26.804373 -48.237469 -10.880853 144.717789 74.316254
40 -68.477791 10.734189 -26.804373 -48.237469 -10.880854 144.717789 74.316254
[BN_L_Leg_Rear01]
37 -72.133743 -73.994843 -18.268616 33.630432 9.874573 -143.269623 104.939293
38 -72.133743 -73.994843 -18.268616 33.944717 9.767672 -142.541168 104.939293
39 -72.133743 -73.994843 -18.268616 34.060135 9.722735 -142.273560 104.939293
40 -72.133743 -73.994843 -18.268616 34.060143 9.722736 -142.273560 104.939293
[BN_MetalTop]
37 0.000008 13.737477 26.403606 109.947617 -35.009609 -105.841393 29.763546
38 0.000008 13.737477 26.403606 109.334778 -33.951176 -106.349800 29.763546
39 0.000008 13.737477 26.403606 108.718185 -32.897316 -106.865471 29.763546
40 0.000008 13.737477 26.403606 109.227806 -33.763683 -106.442558 29.763546
[BN_Neck]
37 0.000014 95.233284 10.002091 -148.348755 -29.408241 89.999931 95.757088
38 0.000014 95.233284 10.002091 -148.348770 -29.408243 89.999939 95.757088
39 0.000014 95.233284 10.002091 -148.348770 -29.408243 89.999939 95.757088
40 0.000014 95.233284 10.002091 -148.348770 -29.408243 89.999939 95.757088
[BN_R_Leg_Front01]
37 68.477768 10.734107 -26.804314 97.163010 39.364223 71.714806 74.316193
38 68.477768 10.734107 -26.804314 97.061180 39.924198 72.451195 74.316193
39 68.477768 10.734107 -26.804314 97.027397 40.131664 72.718666 74.316193
40 68.477768 10.734107 -26.804314 97.027435 40.131676 72.718697 74.316193
[BN_R_Leg_Rear01]
37 72.133751 -73.994873 -18.268644 -94.442856 65.512932 -66.235649 104.939331
38 72.133751 -73.994873 -18.268644 -94.719223 65.260483 -65.811028 104.939331
39 72.133751 -73.994873 -18.268644 -94.825607 65.168137 -65.664345 104.939331
40 72.133751 -73.994873 -18.268644 -94.825653 65.168159 -65.664398 104.939331
[BN_Sack]
37 -0.000000 -78.024918 33.657791 86.958496 -12.961477 -97.094231 84.974907
38 -0.000000 -78.024918 33.657791 86.958496 -12.961477 -97.094231 84.974907
39 -0.000000 -78.024918 33.657791 86.958496 -12.961477 -97.094231 84.974907
40 -0.000000 -78.024918 33.657791 86.958496 -12.961477 -97.094231 84.974907
[BN_L_Leg_Front02]
37 142.805023 -0.000015 -0.000104 0.183235 0.296967 -92.703934 142.805023
38 142.805023 -0.000015 -0.000104 0.183235 0.296967 -92.703934 142.805023
39 142.805023 -0.000015 -0.000104 0.183235 0.296967 -92.703934 142.805023
40 142.805023 -0.000015 -0.000104 0.183235 0.296967 -92.703934 142.805023
[BN_L_Leg_Front03]
37 124.143021 -0.000045 0.000007 0.353362 -0.441911 100.329872 124.143021
38 124.143021 -0.000045 0.000007 0.353362 -0.441911 100.329872 124.143021
39 124.143021 -0.000045 0.000007 0.353362 -0.441911 100.329872 124.143021
40 124.143021 -0.000045 0.000007 0.353362 -0.441911 100.329872 124.143021
[BN_L_Leg_Rear02]
37 139.939041 0.000075 -0.000022 0.143457 -0.186082 75.574715 139.939041
38 139.939041 0.000075 -0.000022 0.143457 -0.186082 75.574715 139.939041
39 139.939041 0.000075 -0.000022 0.143457 -0.186082 75.574715 139.939041
40 139.939041 0.000075 -0.000022 0.143457 -0.186082 75.574715 139.939041
[BN_L_Leg_Rear03]
37 142.839615 0.000179 -0.000060 0.000003 -0.000003 -88.940514 142.839615
38 142.839615 0.000179 -0.000060 0.000003 -0.000003 -88.940514 142.839615
39 142.839615 0.000179 -0.000060 0.000003 -0.000003 -88.940514 142.839615
40 142.839615 0.000179 -0.000060 0.000003 -0.000003 -88.940514 142.839615
[BN_Head]
37 57.062447 -0.000030 0.000000 31.760077 29.789436 -33.763454 57.062447
38 57.062447 -0.000030 0.000000 31.760077 29.789436 -33.763454 57.062447
39 57.062447 -0.000030 0.000000 31.760077 29.789436 -33.763454 57.062447
40 57.062447 -0.000030 0.000000 31.760077 29.789436 -33.763454 57.062447
[BN_Needle]
37 33.915161 69.677544 -0.000060 0.000003 0.000030 87.896805 77.493217
38 33.915161 69.677544 -0.000060 0.000003 0.000030 87.896805 77.493217
39 33.915161 69.677544 -0.000060 0.000003 0.000030 87.896805 77.493217
40 33.915161 69.677544 -0.000060 0.000003 0.000030 87.896805 77.493217
[BN_R_Leg_Front02]
37 142.804947 -0.000060 0.000060 -0.193036 0.296610 92.706657 142.804947
38 142.804947 -0.000060 0.000060 -0.193036 0.296610 92.706657 142.804947
39 142.804947 -0.000060 0.000060 -0.193036 0.296610 92.706657 142.804947
40 142.804947 -0.000060 0.000060 -0.193036 0.296610 92.706657 142.804947
[BN_R_Leg_Front03]
37 124.143005 -0.000060 -0.000156 -0.353343 -0.441338 -100.329697 124.143005
38 124.143005 -0.000060 -0.000156 -0.353343 -0.441338 -100.329697 124.143005
39 124.143005 -0.000060 -0.000156 -0.353343 -0.441338 -100.329697 124.143005
40 124.143005 -0.000060 -0.000156 -0.353343 -0.441338 -100.329697 124.143005
[BN_R_Leg_Rear02]
37 139.939011 -0.000149 0.000015 -0.130192 -0.173712 -75.585640 139.939011
38 139.939011 -0.000149 0.000015 -0.130192 -0.173712 -75.585640 139.939011
39 139.939011 -0.000149 0.000015 -0.130192 -0.173712 -75.585640 139.939011
40 139.939011 -0.000149 0.000015 -0.130192 -0.173712 -75.585640 139.939011
[BN_R_Leg_Rear03]
37 142.839417 0.000075 0.000119 0.000002 0.000017 88.940636 142.839417
38 142.839417 0.000075 0.000119 0.000002 0.000017 88.940636 142.839417
39 142.839417 0.000075 0.000119 0.000002 0.000017 88.940636 142.839417
40 142.839417 0.000075 0.000119 0.000002 0.000017 88.940636 142.839417
[BN_SackDef01]
37 249.782272 -3.760844 42.949425 -128.408218 -44.374973 -11.740845 253.475800
38 249.782272 -3.760844 42.949425 -128.408218 -44.374973 -11.740845 253.475800
39 249.782272 -3.760844 42.949425 -128.408218 -44.374973 -11.740845 253.475800
40 249.782272 -3.760844 42.949425 -128.408218 -44.374973 -11.740845 253.475800
[BN_SackDef02]
37 138.789795 -62.131748 45.674385 32.077126 -27.375721 -88.781525 158.773758
38 138.789795 -62.131748 45.674385 32.077126 -27.375721 -88.781525 158.773758
39 138.789795 -62.131748 45.674385 32.077126 -27.375721 -88.781525 158.773758
40 138.789795 -62.131748 45.674385 32.077126 -27.375721 -88.781525 158.773758
[BN_SackDef03]
37 249.782272 -3.760785 -42.949661 18.144459 44.375008 -11.740894 253.475845
38 249.782272 -3.760785 -42.949661 18.144459 44.375008 -11.740894 253.475845
39 249.782272 -3.760785 -42.949661 18.144459 44.375008 -11.740894 253.475845
40 249.782272 -3.760785 -42.949661 18.144459 44.375008 -11.740894 253.475845
[BN_SackDef04]
37 138.789780 -62.131645 -45.674473 146.059982 27.375723 -88.781555 158.773743
38 138.789780 -62.131645 -45.674473 146.059982 27.375723 -88.781555 158.773743
39 138.789780 -62.131645 -45.674473 146.059982 27.375723 -88.781555 158.773743
40 138.789780 -62.131645 -45.674473 146.059982 27.375723 -88.781555 158.773743
[BN_SackDef05]
37 118.790161 46.167137 -63.831196 0.155741 51.314110 90.605110 142.537460
38 118.790161 46.167137 -63.831196 0.155741 51.314110 90.605110 142.537460
39 118.790161 46.167137 -63.831196 0.155741 51.314110 90.605110 142.537460
40 118.790161 46.167137 -63.831196 0.155741 51.314110 90.605110 142.537460
[BN_SackDef06]
37 118.790207 46.167194 63.831219 152.058487 -51.314072 90.605019 142.537537
38 118.790207 46.167194 63.831219 152.058487 -51.314072 90.605019 142.537537
39 118.790207 46.167194 63.831219 152.058487 -51.314072 90.605019 142.537537
40 118.790207 46.167194 63.831219 152.058487 -51.314072 90.605019 142.537537
